<svg width="117" height="27" fill="none" xmlns="http://www.w3.org/2000/svg"><path d="M18.96.8v19.944L4.668.8H.24V26h3.6V5.516L18.6 26h3.96V.8h-3.6Zm30.017 0v4.788C46.889 2.672 43.649.584 39.941.584c-7.272 0-12.528 5.4-12.528 12.816s5.256 12.816 12.528 12.816c3.708 0 6.948-2.088 9.036-5.004V26h3.492V.8h-3.492Zm-8.892 22.104c-5.148 0-8.892-3.996-8.892-9.504 0-5.508 3.744-9.504 8.892-9.504s8.892 3.996 8.892 9.504c0 5.508-3.744 9.504-8.892 9.504ZM88.831.8h-5.148l-9.72 20.952L64.207.8H58.95V26h3.6V5.48L72.055 26h3.6L85.23 5.3V26h3.6V.8Zm17.092 25.56c6.264 0 10.98-4.572 10.98-10.656V.8h-3.6v14.904c0 4.104-3.168 7.2-7.38 7.2s-7.38-3.096-7.38-7.2V.8h-3.6v14.904c0 6.084 4.716 10.656 10.98 10.656Z" fill="#F1F5F4"/></svg>